# xmcd CD database file generated by Grip 2.95
# 
# Track frame offsets:
#       150
#       16668
#       30605
#       46550
#       61275
#       75800
#       92385
#       108355
#       123628
#       138215
#       153543
#       165185
#       178928
#       193123
#       208118
#       220095
#       236235
#       250033
#       265623
#       275313
# 
# Disc length: 3876 seconds
# 
# Revision: 3
# Processed by: cddbd v1.4b41PL1 Copyright (c) Steve Scherf et al.
# Submitted via: Grip 2.95
# 
DISCID=fb0f2214
DTITLE=Roy Clark - I'll Paint You a Song
DYEAR=1900
DGENRE=
TTITLE0=Then she's a lover
TTITLE1=Unchained melody
TTITLE2=Me and Bobby McGee
TTITLE3=For once in my life
TTITLE4=All the way
TTITLE5=I still miss someone
TTITLE6=Make the world go away
TTITLE7=The days of sand and shovels
TTITLE8=A simple thing as love
TTITLE9=September song
TTITLE10=You don't have very far to go
TTITLE11=Come live with me
TTITLE12=Daddy don't you walk so fast
TTITLE13=Somewhere between love and tomorrow
TTITLE14=The most beautiful girl (in the world)
TTITLE15=Why me?
TTITLE16=I really don't want to know
TTITLE17=I'll paint you a song
TTITLE18=Kiss an angel good morning
TTITLE19=Onward christian soldiers (good old time religion)
EXTD=
EXTT0=
EXTT1=
EXTT2=
EXTT3=
EXTT4=
EXTT5=
EXTT6=
EXTT7=
EXTT8=
EXTT9=
EXTT10=
EXTT11=
EXTT12=
EXTT13=
EXTT14=
EXTT15=
EXTT16=
EXTT17=
EXTT18=
EXTT19=
PLAYORDER=
